<svg xmlns="http://www.w3.org/2000/svg" width="82.63999999999999" height="35" viewBox="0 0 82.63999999999999 35"><rect class="svg__rect" x="0" y="0" width="82.63999999999999" height="35" fill="#093F5D"/><rect class="svg__rect" x="82.63999999999999" y="0" width="0" height="35" fill="#4C8EDA"/><path class="svg__text" d="M15.00 22L13.46 22L16.68 13.47L18.01 13.47L21.24 22L19.69 22L18.99 20.01L15.69 20.01L15.00 22ZM17.34 15.28L16.10 18.82L18.58 18.82L17.34 15.28ZM26.76 22L25.28 22L25.28 13.47L26.76 13.47L26.76 22ZM37.81 22.73L36.69 22.73L40.05 13.47L41.16 13.47L37.81 22.73ZM52.73 22L51.25 22L51.25 13.47L53.18 13.47L55.64 20.01L58.09 13.47L60.01 13.47L60.01 22L58.53 22L58.53 19.19L58.68 15.43L56.16 22L55.10 22L52.58 15.43L52.73 19.19L52.73 22ZM70.10 22L64.75 22L64.75 13.47L66.23 13.47L66.23 20.82L70.10 20.82L70.10 22Z" fill="#FFFFFF"/><path class="svg__text" d="" fill="#FFFFFF" x="95.63999999999999"/></svg>