<svg xmlns="http://www.w3.org/2000/svg" width="70.69" height="35" viewBox="0 0 70.69 35"><rect class="svg__rect" x="0" y="0" width="70.69" height="35" fill="#4C8EDA"/><rect class="svg__rect" x="70.69" y="0" width="0" height="35" fill="#389AD5"/><path class="svg__text" d="M15.00 22L13.46 22L16.68 13.47L18.01 13.47L21.24 22L19.69 22L18.99 20.01L15.69 20.01L15.00 22ZM17.34 15.28L16.10 18.82L18.58 18.82L17.34 15.28ZM26.76 22L25.28 22L25.28 13.47L26.76 13.47L26.76 22ZM31.83 22.73L30.71 22.73L34.07 13.47L35.19 13.47L31.83 22.73ZM40.78 22L39.30 22L39.30 13.47L41.22 13.47L43.68 20.01L46.14 13.47L48.06 13.47L48.06 22L46.58 22L46.58 19.19L46.73 15.43L44.21 22L43.14 22L40.63 15.43L40.78 19.19L40.78 22ZM58.15 22L52.80 22L52.80 13.47L54.28 13.47L54.28 20.82L58.15 20.82L58.15 22Z" fill="#FFFFFF"/><path class="svg__text" d="" fill="#FFFFFF" x="83.69"/></svg>
