<svg xmlns="http://www.w3.org/2000/svg" width="77.25" height="35" viewBox="0 0 77.25 35"><rect class="svg__rect" x="0" y="0" width="0" height="35" fill="#4C8EDA"/><rect class="svg__rect" x="0" y="0" width="77.25" height="35" fill="#1F6FEA"/><path class="svg__text" d="" fill="#FFFFFF"/><path class="svg__text" d="M15.61 22L13.18 22L16.89 13.60L19.23 13.60L22.95 22L20.48 22L19.82 20.37L16.27 20.37L15.61 22ZM18.04 15.93L16.96 18.61L19.12 18.61L18.04 15.93ZM29.48 22L27.10 22L27.10 13.60L29.48 13.60L29.48 22ZM35.40 23.20L33.37 23.20L37.33 11.90L39.36 11.90L35.40 23.20ZM45.31 22L43.12 22L43.12 13.60L45.07 13.60L48.03 18.45L50.91 13.60L52.86 13.60L52.88 22L50.70 22L50.68 17.55L48.52 21.17L47.46 21.17L45.31 17.67L45.31 22ZM64.43 22L58.05 22L58.05 13.60L60.42 13.60L60.42 20.11L64.43 20.11L64.43 22Z" fill="#FFFFFF" x="39"/></svg>