<svg xmlns="http://www.w3.org/2000/svg" width="108.69" height="35" viewBox="0 0 108.69 35"><rect class="svg__rect" x="0" y="0" width="0" height="35" fill="#4C8EDA"/><rect class="svg__rect" x="0" y="0" width="108.69" height="35" fill="#1F6FEA"/><path class="svg__text" d="" fill="#FFFFFF"/><path class="svg__text" d="M15.61 22L13.18 22L16.89 13.60L19.23 13.60L22.95 22L20.48 22L19.82 20.37L16.27 20.37L15.61 22ZM18.04 15.93L16.96 18.61L19.12 18.61L18.04 15.93ZM29.43 22L27.10 22L27.10 13.60L29.06 13.60L32.77 18.07L32.77 13.60L35.09 13.60L35.09 22L33.14 22L29.43 17.52L29.43 22ZM44.23 22L40.26 22L40.26 13.60L44.23 13.60Q45.61 13.60 46.68 14.12Q47.74 14.63 48.33 15.58Q48.92 16.53 48.92 17.80L48.92 17.80Q48.92 19.07 48.33 20.02Q47.74 20.97 46.68 21.48Q45.61 22 44.23 22L44.23 22ZM42.64 15.50L42.64 20.10L44.14 20.10Q45.21 20.10 45.87 19.49Q46.52 18.88 46.52 17.80L46.52 17.80Q46.52 16.72 45.87 16.11Q45.21 15.50 44.14 15.50L44.14 15.50L42.64 15.50ZM56.03 22L53.65 22L53.65 13.60L57.49 13.60Q58.64 13.60 59.48 13.98Q60.31 14.35 60.77 15.06Q61.23 15.76 61.23 16.71L61.23 16.71Q61.23 17.62 60.80 18.30Q60.37 18.98 59.58 19.36L59.58 19.36L61.39 22L58.85 22L57.32 19.77L56.03 19.77L56.03 22ZM56.03 15.47L56.03 17.93L57.35 17.93Q58.08 17.93 58.45 17.61Q58.82 17.29 58.82 16.71L58.82 16.71Q58.82 16.12 58.45 15.79Q58.08 15.47 57.35 15.47L57.35 15.47L56.03 15.47ZM65.59 17.80L65.59 17.80Q65.59 16.55 66.19 15.55Q66.79 14.56 67.86 14.00Q68.92 13.43 70.25 13.43L70.25 13.43Q71.58 13.43 72.64 14.00Q73.71 14.56 74.31 15.55Q74.92 16.55 74.92 17.80L74.92 17.80Q74.92 19.05 74.31 20.04Q73.71 21.04 72.65 21.60Q71.59 22.17 70.25 22.17L70.25 22.17Q68.92 22.17 67.86 21.60Q66.79 21.04 66.19 20.04Q65.59 19.05 65.59 17.80ZM67.98 17.80L67.98 17.80Q67.98 18.51 68.28 19.05Q68.59 19.60 69.10 19.90Q69.62 20.20 70.25 20.20L70.25 20.20Q70.89 20.20 71.40 19.90Q71.92 19.60 72.22 19.05Q72.52 18.51 72.52 17.80L72.52 17.80Q72.52 17.09 72.22 16.54Q71.92 16 71.40 15.70Q70.89 15.40 70.25 15.40L70.25 15.40Q69.61 15.40 69.10 15.70Q68.59 16 68.28 16.54Q67.98 17.09 67.98 17.80ZM82.03 22L79.65 22L79.65 13.60L82.03 13.60L82.03 22ZM91.17 22L87.20 22L87.20 13.60L91.17 13.60Q92.56 13.60 93.62 14.12Q94.69 14.63 95.28 15.58Q95.87 16.53 95.87 17.80L95.87 17.80Q95.87 19.07 95.28 20.02Q94.69 20.97 93.62 21.48Q92.56 22 91.17 22L91.17 22ZM89.58 15.50L89.58 20.10L91.08 20.10Q92.16 20.10 92.81 19.49Q93.47 18.88 93.47 17.80L93.47 17.80Q93.47 16.72 92.81 16.11Q92.16 15.50 91.08 15.50L91.08 15.50L89.58 15.50Z" fill="#FFFFFF" x="39"/></svg>