<svg xmlns="http://www.w3.org/2000/svg" width="94.56" height="35" viewBox="0 0 94.56 35"><rect class="svg__rect" x="0" y="0" width="94.56" height="35" fill="#87BA55"/><rect class="svg__rect" x="94.56" y="0" width="0" height="35" fill="#389AD5"/><path class="svg__text" d="M15.00 22L13.46 22L16.68 13.47L18.01 13.47L21.24 22L19.69 22L18.99 20.01L15.69 20.01L15.00 22ZM17.34 15.28L16.10 18.82L18.58 18.82L17.34 15.28ZM26.67 22L25.19 22L25.19 13.47L26.67 13.47L30.49 19.54L30.49 13.47L31.96 13.47L31.96 22L30.48 22L26.67 15.95L26.67 22ZM39.15 22L36.70 22L36.70 13.47L39.22 13.47Q40.35 13.47 41.23 13.97Q42.10 14.48 42.58 15.40Q43.06 16.33 43.06 17.52L43.06 17.52L43.06 17.95Q43.06 19.16 42.58 20.08Q42.10 21.00 41.20 21.50Q40.31 22 39.15 22L39.15 22ZM38.18 14.66L38.18 20.82L39.15 20.82Q40.31 20.82 40.94 20.09Q41.56 19.36 41.57 17.99L41.57 17.99L41.57 17.52Q41.57 16.13 40.97 15.40Q40.37 14.66 39.22 14.66L39.22 14.66L38.18 14.66ZM49.01 22L47.53 22L47.53 13.47L50.53 13.47Q52.00 13.47 52.81 14.13Q53.61 14.79 53.61 16.05L53.61 16.05Q53.61 16.90 53.20 17.48Q52.78 18.06 52.05 18.37L52.05 18.37L53.96 21.92L53.96 22L52.37 22L50.66 18.71L49.01 18.71L49.01 22ZM49.01 14.66L49.01 17.52L50.53 17.52Q51.28 17.52 51.71 17.15Q52.13 16.77 52.13 16.11L52.13 16.11Q52.13 15.43 51.74 15.05Q51.35 14.68 50.57 14.66L50.57 14.66L49.01 14.66ZM57.73 18.00L57.73 18.00L57.73 17.52Q57.73 16.28 58.18 15.32Q58.62 14.37 59.43 13.86Q60.23 13.35 61.27 13.35Q62.32 13.35 63.12 13.85Q63.93 14.35 64.37 15.29Q64.81 16.23 64.81 17.48L64.81 17.48L64.81 17.96Q64.81 19.21 64.38 20.16Q63.95 21.10 63.14 21.61Q62.33 22.12 61.29 22.12L61.29 22.12Q60.25 22.12 59.44 21.61Q58.63 21.10 58.18 20.17Q57.74 19.23 57.73 18.00ZM59.22 17.46L59.22 17.96Q59.22 19.36 59.77 20.13Q60.31 20.90 61.29 20.90L61.29 20.90Q62.27 20.90 62.80 20.15Q63.33 19.40 63.33 17.96L63.33 17.96L63.33 17.51Q63.33 16.09 62.79 15.34Q62.26 14.58 61.27 14.58L61.27 14.58Q60.31 14.58 59.77 15.33Q59.23 16.09 59.22 17.46L59.22 17.46ZM70.84 22L69.37 22L69.37 13.47L70.84 13.47L70.84 22ZM78.11 22L75.65 22L75.65 13.47L78.17 13.47Q79.30 13.47 80.18 13.97Q81.06 14.48 81.54 15.40Q82.02 16.33 82.02 17.52L82.02 17.52L82.02 17.95Q82.02 19.16 81.53 20.08Q81.05 21.00 80.16 21.50Q79.26 22 78.11 22L78.11 22ZM77.14 14.66L77.14 20.82L78.10 20.82Q79.27 20.82 79.89 20.09Q80.52 19.36 80.53 17.99L80.53 17.99L80.53 17.52Q80.53 16.13 79.92 15.40Q79.32 14.66 78.17 14.66L78.17 14.66L77.14 14.66Z" fill="#FFFFFF"/><path class="svg__text" d="" fill="#FFFFFF" x="107.56"/></svg>