<svg xmlns="http://www.w3.org/2000/svg" width="52.14" height="35" viewBox="0 0 52.14 35"><rect class="svg__rect" x="0" y="0" width="52.14" height="35" fill="#005697"/><rect class="svg__rect" x="52.14" y="0" width="0" height="35" fill="#389AD5"/><path class="svg__text" d="M13.95 18.19L13.95 18.19L13.95 17.39Q13.95 16.19 14.38 15.27Q14.80 14.35 15.60 13.85Q16.40 13.35 17.45 13.35L17.45 13.35Q18.86 13.35 19.73 14.12Q20.59 14.89 20.73 16.29L20.73 16.29L19.25 16.29Q19.14 15.37 18.71 14.96Q18.28 14.55 17.45 14.55L17.45 14.55Q16.48 14.55 15.97 15.26Q15.45 15.96 15.44 17.33L15.44 17.33L15.44 18.09Q15.44 19.47 15.93 20.20Q16.43 20.92 17.38 20.92L17.38 20.92Q18.25 20.92 18.69 20.53Q19.13 20.14 19.25 19.22L19.25 19.22L20.73 19.22Q20.60 20.59 19.72 21.35Q18.84 22.12 17.38 22.12L17.38 22.12Q16.36 22.12 15.59 21.63Q14.81 21.15 14.39 20.26Q13.97 19.37 13.95 18.19ZM26.81 18.61L24.57 18.61L24.57 17.31L26.81 17.31L26.81 14.93L28.19 14.93L28.19 17.31L30.42 17.31L30.42 18.61L28.19 18.61L28.19 21.14L26.81 21.14L26.81 18.61ZM36.48 18.61L34.24 18.61L34.24 17.31L36.48 17.31L36.48 14.93L37.87 14.93L37.87 17.31L40.09 17.31L40.09 18.61L37.87 18.61L37.87 21.14L36.48 21.14L36.48 18.61Z" fill="#FFFFFF"/><path class="svg__text" d="" fill="#FFFFFF" x="65.14"/></svg>