<svg xmlns="http://www.w3.org/2000/svg" width="55.330000000000005" height="35" viewBox="0 0 55.330000000000005 35"><rect class="svg__rect" x="0" y="0" width="0" height="35" fill="#4C8EDA"/><rect class="svg__rect" x="0" y="0" width="55.330000000000005" height="35" fill="#1F6FEA"/><path class="svg__text" d="" fill="#FFFFFF"/><path class="svg__text" d="M13.76 17.80L13.76 17.80Q13.76 16.54 14.36 15.54Q14.96 14.55 16.01 13.99Q17.06 13.43 18.38 13.43L18.38 13.43Q19.53 13.43 20.45 13.84Q21.38 14.25 21.99 15.02L21.99 15.02L20.48 16.39Q19.67 15.40 18.50 15.40L18.50 15.40Q17.81 15.40 17.28 15.70Q16.75 16 16.45 16.54Q16.16 17.09 16.16 17.80L16.16 17.80Q16.16 18.51 16.45 19.05Q16.75 19.60 17.28 19.90Q17.81 20.20 18.50 20.20L18.50 20.20Q19.67 20.20 20.48 19.22L20.48 19.22L21.99 20.58Q21.38 21.35 20.46 21.76Q19.53 22.17 18.38 22.17L18.38 22.17Q17.06 22.17 16.01 21.61Q14.96 21.05 14.36 20.05Q13.76 19.06 13.76 17.80ZM28.43 18.68L26.39 18.68L26.39 16.93L28.43 16.93L28.43 14.95L30.27 14.95L30.27 16.93L32.30 16.93L32.30 18.68L30.27 18.68L30.27 20.66L28.43 20.66L28.43 18.68ZM39.22 18.68L37.18 18.68L37.18 16.93L39.22 16.93L39.22 14.95L41.06 14.95L41.06 16.93L43.09 16.93L43.09 18.68L41.06 18.68L41.06 20.66L39.22 20.66L39.22 18.68Z" fill="#FFFFFF" x="39"/></svg>