<svg xmlns="http://www.w3.org/2000/svg" width="105.68" height="35" viewBox="0 0 105.68 35"><rect class="svg__rect" x="0" y="0" width="105.68" height="35" fill="#8D9393"/><rect class="svg__rect" x="105.68" y="0" width="0" height="35" fill="#389AD5"/><path class="svg__text" d="M16.67 22L14.22 22L14.22 13.47L16.74 13.47Q17.87 13.47 18.74 13.97Q19.62 14.48 20.10 15.40Q20.58 16.33 20.58 17.52L20.58 17.52L20.58 17.95Q20.58 19.16 20.10 20.08Q19.61 21.00 18.72 21.50Q17.83 22 16.67 22L16.67 22ZM15.70 14.66L15.70 20.82L16.67 20.82Q17.83 20.82 18.46 20.09Q19.08 19.36 19.09 17.99L19.09 17.99L19.09 17.52Q19.09 16.13 18.49 15.40Q17.89 14.66 16.74 14.66L16.74 14.66L15.70 14.66ZM25.82 22L24.28 22L27.51 13.47L28.84 13.47L32.06 22L30.52 22L29.82 20.01L26.52 20.01L25.82 22ZM28.17 15.28L26.93 18.82L29.40 18.82L28.17 15.28ZM37.70 14.66L35.06 14.66L35.06 13.47L41.83 13.47L41.83 14.66L39.17 14.66L39.17 22L37.70 22L37.70 14.66ZM46.37 22L44.83 22L48.05 13.47L49.38 13.47L52.61 22L51.06 22L50.36 20.01L47.06 20.01L46.37 22ZM48.71 15.28L47.48 18.82L49.95 18.82L48.71 15.28ZM59.67 22L56.56 22L56.56 13.47L59.49 13.47Q60.93 13.47 61.69 14.05Q62.45 14.63 62.45 15.78L62.45 15.78Q62.45 16.36 62.13 16.83Q61.81 17.30 61.20 17.56L61.20 17.56Q61.89 17.75 62.27 18.26Q62.65 18.78 62.65 19.51L62.65 19.51Q62.65 20.71 61.88 21.36Q61.11 22 59.67 22L59.67 22ZM58.05 18.15L58.05 20.82L59.69 20.82Q60.39 20.82 60.78 20.47Q61.17 20.13 61.17 19.51L61.17 19.51Q61.17 18.18 59.81 18.15L59.81 18.15L58.05 18.15ZM58.05 14.66L58.05 17.06L59.50 17.06Q60.19 17.06 60.58 16.75Q60.97 16.43 60.97 15.86L60.97 15.86Q60.97 15.23 60.61 14.95Q60.25 14.66 59.49 14.66L59.49 14.66L58.05 14.66ZM67.90 22L66.36 22L69.58 13.47L70.91 13.47L74.14 22L72.59 22L71.90 20.01L68.59 20.01L67.90 22ZM70.24 15.28L69.01 18.82L71.48 18.82L70.24 15.28ZM77.66 19.42L77.66 19.42L79.14 19.42Q79.14 20.15 79.63 20.55Q80.11 20.95 81.00 20.95L81.00 20.95Q81.78 20.95 82.17 20.63Q82.56 20.32 82.56 19.80L82.56 19.80Q82.56 19.24 82.16 18.94Q81.76 18.63 80.73 18.32Q79.70 18.01 79.09 17.63L79.09 17.63Q77.93 16.90 77.93 15.72L77.93 15.72Q77.93 14.69 78.77 14.02Q79.61 13.35 80.95 13.35L80.95 13.35Q81.84 13.35 82.54 13.68Q83.23 14.01 83.63 14.61Q84.03 15.22 84.03 15.96L84.03 15.96L82.56 15.96Q82.56 15.29 82.14 14.91Q81.72 14.54 80.94 14.54L80.94 14.54Q80.21 14.54 79.81 14.85Q79.41 15.16 79.41 15.71L79.41 15.71Q79.41 16.18 79.84 16.50Q80.28 16.81 81.27 17.10Q82.27 17.40 82.87 17.78Q83.47 18.16 83.76 18.65Q84.04 19.13 84.04 19.79L84.04 19.79Q84.04 20.86 83.22 21.49Q82.40 22.12 81.00 22.12L81.00 22.12Q80.08 22.12 79.30 21.77Q78.52 21.43 78.09 20.83Q77.66 20.22 77.66 19.42ZM93.90 22L88.33 22L88.33 13.47L93.86 13.47L93.86 14.66L89.81 14.66L89.81 17.02L93.31 17.02L93.31 18.19L89.81 18.19L89.81 20.82L93.90 20.82L93.90 22Z" fill="#FFFFFF"/><path class="svg__text" d="" fill="#FFFFFF" x="118.68"/></svg>