<svg xmlns="http://www.w3.org/2000/svg" width="119.94" height="35" viewBox="0 0 119.94 35"><rect class="svg__rect" x="0" y="0" width="0" height="35" fill="#4C8EDA"/><rect class="svg__rect" x="0" y="0" width="119.94" height="35" fill="#1F6FEA"/><path class="svg__text" d="" fill="#FFFFFF"/><path class="svg__text" d="M18.16 22L14.19 22L14.19 13.60L18.16 13.60Q19.54 13.60 20.61 14.12Q21.68 14.63 22.27 15.58Q22.85 16.53 22.85 17.80L22.85 17.80Q22.85 19.07 22.27 20.02Q21.68 20.97 20.61 21.48Q19.54 22 18.16 22L18.16 22ZM16.57 15.50L16.57 20.10L18.07 20.10Q19.14 20.10 19.80 19.49Q20.45 18.88 20.45 17.80L20.45 17.80Q20.45 16.72 19.80 16.11Q19.14 15.50 18.07 15.50L18.07 15.50L16.57 15.50ZM29.00 22L26.57 22L30.28 13.60L32.63 13.60L36.34 22L33.88 22L33.21 20.37L29.66 20.37L29.00 22ZM31.44 15.93L30.35 18.61L32.52 18.61L31.44 15.93ZM42.29 15.48L39.71 15.48L39.71 13.60L47.23 13.60L47.23 15.48L44.66 15.48L44.66 22L42.29 22L42.29 15.48ZM53.02 22L50.59 22L54.30 13.60L56.64 13.60L60.36 22L57.89 22L57.23 20.37L53.68 20.37L53.02 22ZM55.46 15.93L54.37 18.61L56.53 18.61L55.46 15.93ZM69.06 22L64.51 22L64.51 13.60L68.81 13.60Q70.42 13.60 71.26 14.19Q72.10 14.79 72.10 15.79L72.10 15.79Q72.10 16.39 71.81 16.87Q71.51 17.34 70.97 17.62L70.97 17.62Q71.69 17.87 72.10 18.41Q72.51 18.94 72.51 19.70L72.51 19.70Q72.51 20.80 71.62 21.40Q70.73 22 69.06 22L69.06 22ZM66.87 18.58L66.87 20.28L68.86 20.28Q70.11 20.28 70.11 19.43L70.11 19.43Q70.11 18.58 68.86 18.58L68.86 18.58L66.87 18.58ZM66.87 15.31L66.87 16.94L68.50 16.94Q69.70 16.94 69.70 16.12L69.70 16.12Q69.70 15.31 68.50 15.31L68.50 15.31L66.87 15.31ZM78.64 22L76.22 22L79.92 13.60L82.27 13.60L85.98 22L83.52 22L82.85 20.37L79.30 20.37L78.64 22ZM81.08 15.93L79.99 18.61L82.16 18.61L81.08 15.93ZM89.55 21.24L89.55 21.24L90.33 19.49Q90.89 19.86 91.64 20.09Q92.38 20.32 93.10 20.32L93.10 20.32Q94.47 20.32 94.47 19.64L94.47 19.64Q94.47 19.28 94.08 19.11Q93.69 18.93 92.83 18.74L92.83 18.74Q91.88 18.53 91.24 18.30Q90.61 18.06 90.15 17.55Q89.70 17.03 89.70 16.16L89.70 16.16Q89.70 15.39 90.12 14.77Q90.54 14.15 91.37 13.79Q92.21 13.43 93.41 13.43L93.41 13.43Q94.24 13.43 95.04 13.62Q95.85 13.80 96.47 14.17L96.47 14.17L95.73 15.93Q94.53 15.28 93.40 15.28L93.40 15.28Q92.69 15.28 92.37 15.49Q92.05 15.70 92.05 16.04L92.05 16.04Q92.05 16.37 92.43 16.54Q92.81 16.71 93.66 16.89L93.66 16.89Q94.63 17.10 95.26 17.33Q95.89 17.56 96.35 18.07Q96.81 18.58 96.81 19.46L96.81 19.46Q96.81 20.21 96.39 20.83Q95.97 21.44 95.13 21.80Q94.29 22.17 93.09 22.17L93.09 22.17Q92.07 22.17 91.11 21.92Q90.15 21.67 89.55 21.24ZM108.13 22L101.39 22L101.39 13.60L107.98 13.60L107.98 15.44L103.74 15.44L103.74 16.85L107.47 16.85L107.47 18.63L103.74 18.63L103.74 20.17L108.13 20.17L108.13 22Z" fill="#FFFFFF" x="39"/></svg>