<svg xmlns="http://www.w3.org/2000/svg" width="129.74" height="35" viewBox="0 0 129.74 35"><rect class="svg__rect" x="0" y="0" width="0" height="35" fill="#4C8EDA"/><rect class="svg__rect" x="0" y="0" width="129.74" height="35" fill="#1F6FEA"/><path class="svg__text" d="" fill="#FFFFFF"/><path class="svg__text" d="M16.57 22L14.19 22L14.19 13.60L16.57 13.60L16.57 22ZM24.07 22L21.74 22L21.74 13.60L23.70 13.60L27.41 18.07L27.41 13.60L29.73 13.60L29.73 22L27.78 22L24.07 17.52L24.07 22ZM34.31 21.24L34.31 21.24L35.09 19.49Q35.65 19.86 36.39 20.09Q37.14 20.32 37.86 20.32L37.86 20.32Q39.23 20.32 39.23 19.64L39.23 19.64Q39.23 19.28 38.84 19.11Q38.45 18.93 37.58 18.74L37.58 18.74Q36.64 18.53 36.00 18.30Q35.36 18.06 34.91 17.55Q34.46 17.03 34.46 16.16L34.46 16.16Q34.46 15.39 34.87 14.77Q35.29 14.15 36.13 13.79Q36.96 13.43 38.17 13.43L38.17 13.43Q39.00 13.43 39.80 13.62Q40.61 13.80 41.22 14.17L41.22 14.17L40.49 15.93Q39.29 15.28 38.16 15.28L38.16 15.28Q37.45 15.28 37.13 15.49Q36.81 15.70 36.81 16.04L36.81 16.04Q36.81 16.37 37.19 16.54Q37.57 16.71 38.42 16.89L38.42 16.89Q39.38 17.10 40.01 17.33Q40.64 17.56 41.11 18.07Q41.57 18.58 41.57 19.46L41.57 19.46Q41.57 20.21 41.15 20.83Q40.73 21.44 39.89 21.80Q39.05 22.17 37.85 22.17L37.85 22.17Q36.83 22.17 35.87 21.92Q34.91 21.67 34.31 21.24ZM47.94 15.48L45.35 15.48L45.35 13.60L52.88 13.60L52.88 15.48L50.31 15.48L50.31 22L47.94 22L47.94 15.48ZM58.67 22L56.24 22L59.95 13.60L62.29 13.60L66.01 22L63.54 22L62.88 20.37L59.33 20.37L58.67 22ZM61.10 15.93L60.02 18.61L62.18 18.61L61.10 15.93ZM69.73 17.80L69.73 17.80Q69.73 16.54 70.33 15.54Q70.93 14.55 72.00 13.99Q73.07 13.43 74.41 13.43L74.41 13.43Q75.59 13.43 76.53 13.83Q77.46 14.22 78.08 14.97L78.08 14.97L76.57 16.33Q75.73 15.40 74.55 15.40L74.55 15.40Q74.54 15.40 74.53 15.40L74.53 15.40Q73.46 15.40 72.79 16.06Q72.13 16.71 72.13 17.80L72.13 17.80Q72.13 18.50 72.43 19.04Q72.73 19.59 73.27 19.89Q73.81 20.20 74.51 20.20L74.51 20.20Q75.20 20.20 75.79 19.93L75.79 19.93L75.79 17.62L77.89 17.62L77.89 21.10Q77.17 21.61 76.24 21.89Q75.30 22.17 74.36 22.17L74.36 22.17Q73.05 22.17 71.99 21.61Q70.93 21.05 70.33 20.05Q69.73 19.06 69.73 17.80ZM85.26 22L82.88 22L82.88 13.60L86.73 13.60Q87.87 13.60 88.71 13.98Q89.55 14.35 90.00 15.06Q90.46 15.76 90.46 16.71L90.46 16.71Q90.46 17.62 90.03 18.30Q89.60 18.98 88.81 19.36L88.81 19.36L90.62 22L88.08 22L86.56 19.77L85.26 19.77L85.26 22ZM85.26 15.47L85.26 17.93L86.58 17.93Q87.31 17.93 87.68 17.61Q88.06 17.29 88.06 16.71L88.06 16.71Q88.06 16.12 87.68 15.79Q87.31 15.47 86.58 15.47L86.58 15.47L85.26 15.47ZM96.66 22L94.24 22L97.95 13.60L100.29 13.60L104.01 22L101.54 22L100.88 20.37L97.33 20.37L96.66 22ZM99.10 15.93L98.02 18.61L100.18 18.61L99.10 15.93ZM110.36 22L108.16 22L108.16 13.60L110.12 13.60L113.07 18.45L115.95 13.60L117.90 13.60L117.93 22L115.75 22L115.72 17.55L113.56 21.17L112.51 21.17L110.36 17.67L110.36 22Z" fill="#FFFFFF" x="39"/></svg>