<svg xmlns="http://www.w3.org/2000/svg" width="115.92" height="35" viewBox="0 0 115.92 35"><rect class="svg__rect" x="0" y="0" width="115.92" height="35" fill="#C2337D"/><rect class="svg__rect" x="115.92" y="0" width="0" height="35" fill="#389AD5"/><path class="svg__text" d="M15.78 22L14.31 22L14.31 13.47L15.78 13.47L15.78 22ZM22.07 22L20.59 22L20.59 13.47L22.07 13.47L25.89 19.54L25.89 13.47L27.36 13.47L27.36 22L25.88 22L22.07 15.95L22.07 22ZM31.67 19.42L31.67 19.42L33.15 19.42Q33.15 20.15 33.63 20.55Q34.11 20.95 35.01 20.95L35.01 20.95Q35.78 20.95 36.17 20.63Q36.56 20.32 36.56 19.80L36.56 19.80Q36.56 19.24 36.16 18.94Q35.77 18.63 34.74 18.32Q33.71 18.01 33.10 17.63L33.10 17.63Q31.93 16.90 31.93 15.72L31.93 15.72Q31.93 14.69 32.77 14.02Q33.61 13.35 34.95 13.35L34.95 13.35Q35.84 13.35 36.54 13.68Q37.24 14.01 37.64 14.61Q38.04 15.22 38.04 15.96L38.04 15.96L36.56 15.96Q36.56 15.29 36.14 14.91Q35.72 14.54 34.94 14.54L34.94 14.54Q34.22 14.54 33.81 14.85Q33.41 15.16 33.41 15.71L33.41 15.71Q33.41 16.18 33.85 16.50Q34.28 16.81 35.28 17.10Q36.27 17.40 36.88 17.78Q37.48 18.16 37.76 18.65Q38.04 19.13 38.04 19.79L38.04 19.79Q38.04 20.86 37.22 21.49Q36.41 22.12 35.01 22.12L35.01 22.12Q34.08 22.12 33.30 21.77Q32.53 21.43 32.10 20.83Q31.67 20.22 31.67 19.42ZM44.01 14.66L41.38 14.66L41.38 13.47L48.14 13.47L48.14 14.66L45.48 14.66L45.48 22L44.01 22L44.01 14.66ZM52.68 22L51.14 22L54.36 13.47L55.69 13.47L58.92 22L57.37 22L56.67 20.01L53.37 20.01L52.68 22ZM55.02 15.28L53.79 18.82L56.26 18.82L55.02 15.28ZM62.63 18.13L62.63 18.13L62.63 17.46Q62.63 15.53 63.55 14.44Q64.48 13.35 66.14 13.35L66.14 13.35Q67.56 13.35 68.40 14.05Q69.24 14.76 69.41 16.08L69.41 16.08L67.95 16.08Q67.71 14.54 66.17 14.54L66.17 14.54Q65.17 14.54 64.65 15.26Q64.13 15.98 64.12 17.37L64.12 17.37L64.12 18.02Q64.12 19.40 64.70 20.17Q65.28 20.93 66.32 20.93L66.32 20.93Q67.46 20.93 67.94 20.42L67.94 20.42L67.94 18.75L66.18 18.75L66.18 17.62L69.41 17.62L69.41 20.89Q68.95 21.50 68.13 21.81Q67.31 22.12 66.27 22.12L66.27 22.12Q65.19 22.12 64.37 21.63Q63.54 21.14 63.09 20.24Q62.64 19.33 62.63 18.13ZM75.51 22L74.03 22L74.03 13.47L77.03 13.47Q78.51 13.47 79.31 14.13Q80.11 14.79 80.11 16.05L80.11 16.05Q80.11 16.90 79.70 17.48Q79.29 18.06 78.55 18.37L78.55 18.37L80.46 21.92L80.46 22L78.88 22L77.16 18.71L75.51 18.71L75.51 22ZM75.51 14.66L75.51 17.52L77.04 17.52Q77.79 17.52 78.21 17.15Q78.63 16.77 78.63 16.11L78.63 16.11Q78.63 15.43 78.24 15.05Q77.85 14.68 77.08 14.66L77.08 14.66L75.51 14.66ZM85.29 22L83.74 22L86.97 13.47L88.30 13.47L91.53 22L89.98 22L89.28 20.01L85.98 20.01L85.29 22ZM87.63 15.28L86.39 18.82L88.87 18.82L87.63 15.28ZM96.96 22L95.48 22L95.48 13.47L97.40 13.47L99.86 20.01L102.32 13.47L104.23 13.47L104.23 22L102.76 22L102.76 19.19L102.90 15.43L100.39 22L99.32 22L96.81 15.43L96.96 19.19L96.96 22Z" fill="#FFFFFF"/><path class="svg__text" d="" fill="#FFFFFF" x="128.92000000000002"/></svg>