<svg xmlns="http://www.w3.org/2000/svg" width="78.47" height="35" viewBox="0 0 78.47 35"><rect class="svg__rect" x="0" y="0" width="0" height="35" fill="#4C8EDA"/><rect class="svg__rect" x="0" y="0" width="78.47" height="35" fill="#1F6FEA"/><path class="svg__text" d="" fill="#FFFFFF"/><path class="svg__text" d="M20.57 22L14.19 22L14.19 13.60L16.57 13.60L16.57 20.11L20.57 20.11L20.57 22ZM27.37 22L24.99 22L24.99 13.60L27.37 13.60L27.37 22ZM34.88 22L32.55 22L32.55 13.60L34.50 13.60L38.21 18.07L38.21 13.60L40.54 13.60L40.54 22L38.59 22L34.88 17.52L34.88 22ZM45.63 18.26L45.63 18.26L45.63 13.60L48.01 13.60L48.01 18.19Q48.01 20.20 49.60 20.20L49.60 20.20Q51.18 20.20 51.18 18.19L51.18 18.19L51.18 13.60L53.53 13.60L53.53 18.26Q53.53 20.13 52.49 21.15Q51.45 22.17 49.58 22.17L49.58 22.17Q47.70 22.17 46.67 21.15Q45.63 20.13 45.63 18.26ZM60.47 22L57.75 22L60.81 17.75L57.88 13.60L60.56 13.60L62.24 16.02L63.89 13.60L66.47 13.60L63.54 17.66L66.66 22L63.92 22L62.18 19.40L60.47 22Z" fill="#FFFFFF" x="39"/></svg>