<svg xmlns="http://www.w3.org/2000/svg" width="62.2" height="35" viewBox="0 0 62.2 35"><rect class="svg__rect" x="0" y="0" width="62.2" height="35" fill="#4C8EDA"/><rect class="svg__rect" x="62.2" y="0" width="0" height="35" fill="#4C8EDA"/><path class="svg__text" d="M15.69 22L14.22 22L14.22 13.47L16.14 13.47L18.60 20.01L21.06 13.47L22.97 13.47L22.97 22L21.49 22L21.49 19.19L21.64 15.43L19.12 22L18.06 22L15.55 15.43L15.69 19.19L15.69 22ZM28.49 22L26.95 22L30.17 13.47L31.50 13.47L34.73 22L33.18 22L32.49 20.01L29.18 20.01L28.49 22ZM30.83 15.28L29.60 18.82L32.07 18.82L30.83 15.28ZM40.25 22L38.77 22L38.77 13.47L40.25 13.47L40.25 22ZM50.42 22L45.06 22L45.06 13.47L46.54 13.47L46.54 20.82L50.42 20.82L50.42 22Z" fill="#FFFFFF"/><path class="svg__text" d="" fill="#FFFFFF" x="75.2"/></svg>