<svg xmlns="http://www.w3.org/2000/svg" width="57.53" height="35" viewBox="0 0 57.53 35"><rect class="svg__rect" x="0" y="0" width="0" height="35" fill="#4C8EDA"/><rect class="svg__rect" x="0" y="0" width="57.53" height="35" fill="#1F6FEA"/><path class="svg__text" d="" fill="#FFFFFF"/><path class="svg__text" d="M16.52 22L14.19 22L14.19 13.60L16.14 13.60L19.85 18.07L19.85 13.60L22.18 13.60L22.18 22L20.23 22L16.52 17.52L16.52 22ZM33.73 22L27.34 22L27.34 13.60L29.72 13.60L29.72 20.11L33.73 20.11L33.73 22ZM40.53 22L38.15 22L38.15 13.60L41.99 13.60Q43.13 13.60 43.97 13.98Q44.81 14.35 45.27 15.06Q45.72 15.76 45.72 16.71L45.72 16.71Q45.72 17.66 45.27 18.35Q44.81 19.05 43.97 19.42Q43.13 19.80 41.99 19.80L41.99 19.80L40.53 19.80L40.53 22ZM40.53 15.47L40.53 17.93L41.84 17.93Q42.58 17.93 42.95 17.61Q43.32 17.29 43.32 16.71L43.32 16.71Q43.32 16.12 42.95 15.80Q42.58 15.47 41.84 15.47L41.84 15.47L40.53 15.47Z" fill="#FFFFFF" x="39"/></svg>