<svg xmlns="http://www.w3.org/2000/svg" width="53.36" height="35" viewBox="0 0 53.36 35"><rect class="svg__rect" x="0" y="0" width="53.36" height="35" fill="#5F2958"/><rect class="svg__rect" x="53.36" y="0" width="0" height="35" fill="#4C8EDA"/><path class="svg__text" d="M15.70 22L14.22 22L14.22 13.47L15.70 13.47L19.51 19.54L19.51 13.47L20.98 13.47L20.98 22L19.50 22L15.70 15.95L15.70 22ZM31.08 22L25.73 22L25.73 13.47L27.21 13.47L27.21 20.82L31.08 20.82L31.08 22ZM36.69 22L35.21 22L35.21 13.47L38.47 13.47Q39.90 13.47 40.74 14.21Q41.58 14.96 41.58 16.18L41.58 16.18Q41.58 17.44 40.76 18.13Q39.93 18.83 38.45 18.83L38.45 18.83L36.69 18.83L36.69 22ZM36.69 14.66L36.69 17.64L38.47 17.64Q39.26 17.64 39.68 17.27Q40.09 16.90 40.09 16.19L40.09 16.19Q40.09 15.50 39.67 15.09Q39.25 14.68 38.51 14.66L38.51 14.66L36.69 14.66Z" fill="#FFFFFF"/><path class="svg__text" d="" fill="#FFFFFF" x="66.36"/></svg>