<svg xmlns="http://www.w3.org/2000/svg" width="111.49" height="35" viewBox="0 0 111.49 35"><rect class="svg__rect" x="0" y="0" width="111.49" height="35" fill="#000000"/><rect class="svg__rect" x="111.49" y="0" width="0" height="35" fill="#389AD5"/><path class="svg__text" d="M15.70 22L14.22 22L14.22 13.47L17.48 13.47Q18.91 13.47 19.75 14.21Q20.59 14.96 20.59 16.18L20.59 16.18Q20.59 17.44 19.77 18.13Q18.95 18.83 17.46 18.83L17.46 18.83L15.70 18.83L15.70 22ZM15.70 14.66L15.70 17.64L17.48 17.64Q18.27 17.64 18.69 17.27Q19.10 16.90 19.10 16.19L19.10 16.19Q19.10 15.50 18.68 15.09Q18.26 14.68 17.52 14.66L17.52 14.66L15.70 14.66ZM24.61 18.00L24.61 18.00L24.61 17.52Q24.61 16.28 25.05 15.32Q25.49 14.37 26.30 13.86Q27.10 13.35 28.14 13.35Q29.19 13.35 29.99 13.85Q30.80 14.35 31.24 15.29Q31.68 16.23 31.68 17.48L31.68 17.48L31.68 17.96Q31.68 19.21 31.25 20.16Q30.82 21.10 30.01 21.61Q29.21 22.12 28.16 22.12L28.16 22.12Q27.12 22.12 26.31 21.61Q25.50 21.10 25.05 20.17Q24.61 19.23 24.61 18.00ZM26.09 17.46L26.09 17.96Q26.09 19.36 26.64 20.13Q27.18 20.90 28.16 20.90L28.16 20.90Q29.14 20.90 29.67 20.15Q30.20 19.40 30.20 17.96L30.20 17.96L30.20 17.51Q30.20 16.09 29.67 15.34Q29.13 14.58 28.14 14.58L28.14 14.58Q27.18 14.58 26.64 15.33Q26.10 16.09 26.09 17.46L26.09 17.46ZM37.63 22L36.15 22L36.15 13.47L39.15 13.47Q40.63 13.47 41.43 14.13Q42.23 14.79 42.23 16.05L42.23 16.05Q42.23 16.90 41.82 17.48Q41.40 18.06 40.67 18.37L40.67 18.37L42.58 21.92L42.58 22L40.99 22L39.28 18.71L37.63 18.71L37.63 22ZM37.63 14.66L37.63 17.52L39.15 17.52Q39.90 17.52 40.33 17.15Q40.75 16.77 40.75 16.11L40.75 16.11Q40.75 15.43 40.36 15.05Q39.97 14.68 39.20 14.66L39.20 14.66L37.63 14.66ZM48.31 14.66L45.67 14.66L45.67 13.47L52.44 13.47L52.44 14.66L49.78 14.66L49.78 22L48.31 22L48.31 14.66ZM57.68 22L56.19 22L56.19 13.47L61.61 13.47L61.61 14.66L57.68 14.66L57.68 17.20L61.11 17.20L61.11 18.38L57.68 18.38L57.68 22ZM65.50 18.00L65.50 18.00L65.50 17.52Q65.50 16.28 65.95 15.32Q66.39 14.37 67.19 13.86Q68.00 13.35 69.04 13.35Q70.09 13.35 70.89 13.85Q71.70 14.35 72.14 15.29Q72.58 16.23 72.58 17.48L72.58 17.48L72.58 17.96Q72.58 19.21 72.15 20.16Q71.72 21.10 70.91 21.61Q70.10 22.12 69.06 22.12L69.06 22.12Q68.02 22.12 67.21 21.61Q66.39 21.10 65.95 20.17Q65.51 19.23 65.50 18.00ZM66.99 17.46L66.99 17.96Q66.99 19.36 67.53 20.13Q68.08 20.90 69.06 20.90L69.06 20.90Q70.04 20.90 70.57 20.15Q71.10 19.40 71.10 17.96L71.10 17.96L71.10 17.51Q71.10 16.09 70.56 15.34Q70.03 14.58 69.04 14.58L69.04 14.58Q68.08 14.58 67.54 15.33Q67.00 16.09 66.99 17.46L66.99 17.46ZM82.40 22L77.05 22L77.05 13.47L78.53 13.47L78.53 20.82L82.40 20.82L82.40 22ZM88.09 22L86.62 22L86.62 13.47L88.09 13.47L88.09 22ZM92.63 18.00L92.63 18.00L92.63 17.52Q92.63 16.28 93.08 15.32Q93.52 14.37 94.32 13.86Q95.13 13.35 96.17 13.35Q97.22 13.35 98.02 13.85Q98.83 14.35 99.27 15.29Q99.71 16.23 99.71 17.48L99.71 17.48L99.71 17.96Q99.71 19.21 99.28 20.16Q98.84 21.10 98.04 21.61Q97.23 22.12 96.18 22.12L96.18 22.12Q95.15 22.12 94.34 21.61Q93.52 21.10 93.08 20.17Q92.64 19.23 92.63 18.00ZM94.12 17.46L94.12 17.96Q94.12 19.36 94.66 20.13Q95.21 20.90 96.18 20.90L96.18 20.90Q97.17 20.90 97.70 20.15Q98.23 19.40 98.23 17.96L98.23 17.96L98.23 17.51Q98.23 16.09 97.69 15.34Q97.16 14.58 96.17 14.58L96.17 14.58Q95.21 14.58 94.67 15.33Q94.13 16.09 94.12 17.46L94.12 17.46Z" fill="#FFFFFF"/><path class="svg__text" d="" fill="#FFFFFF" x="124.49"/></svg>