<svg xmlns="http://www.w3.org/2000/svg" width="96.01" height="35" viewBox="0 0 96.01 35"><rect class="svg__rect" x="0" y="0" width="0" height="35" fill="#4C8EDA"/><rect class="svg__rect" x="0" y="0" width="96.01" height="35" fill="#1F6FEA"/><path class="svg__text" d="" fill="#FFFFFF"/><path class="svg__text" d="M16.57 22L14.19 22L14.19 13.60L18.03 13.60Q19.17 13.60 20.01 13.98Q20.85 14.35 21.31 15.06Q21.76 15.76 21.76 16.71L21.76 16.71Q21.76 17.66 21.31 18.35Q20.85 19.05 20.01 19.42Q19.17 19.80 18.03 19.80L18.03 19.80L16.57 19.80L16.57 22ZM16.57 15.47L16.57 17.93L17.89 17.93Q18.62 17.93 18.99 17.61Q19.36 17.29 19.36 16.71L19.36 16.71Q19.36 16.12 18.99 15.80Q18.62 15.47 17.89 15.47L17.89 15.47L16.57 15.47ZM28.64 18.95L25.44 13.60L27.95 13.60L29.94 16.94L31.93 13.60L34.23 13.60L31.02 18.99L31.02 22L28.64 22L28.64 18.95ZM40.11 15.48L37.53 15.48L37.53 13.60L45.05 13.60L45.05 15.48L42.48 15.48L42.48 22L40.11 22L40.11 15.48ZM51.80 22L49.42 22L49.42 13.60L51.80 13.60L51.80 16.76L55.04 16.76L55.04 13.60L57.41 13.60L57.41 22L55.04 22L55.04 18.72L51.80 18.72L51.80 22ZM62.15 17.80L62.15 17.80Q62.15 16.55 62.75 15.55Q63.35 14.56 64.42 14.00Q65.48 13.43 66.81 13.43L66.81 13.43Q68.14 13.43 69.20 14.00Q70.27 14.56 70.87 15.55Q71.48 16.55 71.48 17.80L71.48 17.80Q71.48 19.05 70.87 20.04Q70.27 21.04 69.21 21.60Q68.15 22.17 66.81 22.17L66.81 22.17Q65.48 22.17 64.42 21.60Q63.35 21.04 62.75 20.04Q62.15 19.05 62.15 17.80ZM64.54 17.80L64.54 17.80Q64.54 18.51 64.85 19.05Q65.15 19.60 65.66 19.90Q66.18 20.20 66.81 20.20L66.81 20.20Q67.45 20.20 67.97 19.90Q68.48 19.60 68.78 19.05Q69.08 18.51 69.08 17.80L69.08 17.80Q69.08 17.09 68.78 16.54Q68.48 16 67.97 15.70Q67.45 15.40 66.81 15.40L66.81 15.40Q66.17 15.40 65.66 15.70Q65.15 16 64.85 16.54Q64.54 17.09 64.54 17.80ZM78.54 22L76.21 22L76.21 13.60L78.17 13.60L81.88 18.07L81.88 13.60L84.20 13.60L84.20 22L82.25 22L78.54 17.52L78.54 22Z" fill="#FFFFFF" x="39"/></svg>