<svg xmlns="http://www.w3.org/2000/svg" width="116.44" height="35" viewBox="0 0 116.44 35"><rect class="svg__rect" x="0" y="0" width="0" height="35" fill="#4C8EDA"/><rect class="svg__rect" x="0" y="0" width="116.44" height="35" fill="#1F6FEA"/><path class="svg__text" d="" fill="#FFFFFF"/><path class="svg__text" d="M16.27 22L13.54 13.60L15.99 13.60L17.68 18.96L19.46 13.60L21.64 13.60L23.33 19.01L25.10 13.60L27.37 13.60L24.64 22L22.10 22L20.49 16.89L18.81 22L16.27 22ZM34.26 22L31.88 22L31.88 13.60L34.26 13.60L34.26 22ZM41.76 22L39.43 22L39.43 13.60L41.39 13.60L45.10 18.07L45.10 13.60L47.42 13.60L47.42 22L45.47 22L41.76 17.52L41.76 22ZM56.56 22L52.58 22L52.58 13.60L56.56 13.60Q57.94 13.60 59.01 14.12Q60.07 14.63 60.66 15.58Q61.25 16.53 61.25 17.80L61.25 17.80Q61.25 19.07 60.66 20.02Q60.07 20.97 59.01 21.48Q57.94 22 56.56 22L56.56 22ZM54.96 15.50L54.96 20.10L56.46 20.10Q57.54 20.10 58.19 19.49Q58.85 18.88 58.85 17.80L58.85 17.80Q58.85 16.72 58.19 16.11Q57.54 15.50 56.46 15.50L56.46 15.50L54.96 15.50ZM65.55 17.80L65.55 17.80Q65.55 16.55 66.15 15.55Q66.76 14.56 67.82 14.00Q68.89 13.43 70.22 13.43L70.22 13.43Q71.55 13.43 72.61 14.00Q73.67 14.56 74.28 15.55Q74.89 16.55 74.89 17.80L74.89 17.80Q74.89 19.05 74.28 20.04Q73.67 21.04 72.61 21.60Q71.55 22.17 70.22 22.17L70.22 22.17Q68.89 22.17 67.82 21.60Q66.76 21.04 66.15 20.04Q65.55 19.05 65.55 17.80ZM67.95 17.80L67.95 17.80Q67.95 18.51 68.25 19.05Q68.55 19.60 69.07 19.90Q69.58 20.20 70.22 20.20L70.22 20.20Q70.85 20.20 71.37 19.90Q71.89 19.60 72.18 19.05Q72.48 18.51 72.48 17.80L72.48 17.80Q72.48 17.09 72.18 16.54Q71.89 16 71.37 15.70Q70.85 15.40 70.22 15.40L70.22 15.40Q69.58 15.40 69.06 15.70Q68.55 16 68.25 16.54Q67.95 17.09 67.95 17.80ZM81.69 22L78.97 13.60L81.42 13.60L83.11 18.96L84.88 13.60L87.07 13.60L88.76 19.01L90.52 13.60L92.79 13.60L90.07 22L87.52 22L85.92 16.89L84.24 22L81.69 22ZM96.72 21.24L96.72 21.24L97.50 19.49Q98.06 19.86 98.80 20.09Q99.55 20.32 100.27 20.32L100.27 20.32Q101.63 20.32 101.64 19.64L101.64 19.64Q101.64 19.28 101.25 19.11Q100.86 18.93 99.99 18.74L99.99 18.74Q99.04 18.53 98.41 18.30Q97.77 18.06 97.32 17.55Q96.86 17.03 96.86 16.16L96.86 16.16Q96.86 15.39 97.28 14.77Q97.70 14.15 98.54 13.79Q99.37 13.43 100.58 13.43L100.58 13.43Q101.40 13.43 102.21 13.62Q103.02 13.80 103.63 14.17L103.63 14.17L102.90 15.93Q101.70 15.28 100.57 15.28L100.57 15.28Q99.86 15.28 99.54 15.49Q99.21 15.70 99.21 16.04L99.21 16.04Q99.21 16.37 99.60 16.54Q99.98 16.71 100.83 16.89L100.83 16.89Q101.79 17.10 102.42 17.33Q103.05 17.56 103.51 18.07Q103.98 18.58 103.98 19.46L103.98 19.46Q103.98 20.21 103.56 20.83Q103.14 21.44 102.30 21.80Q101.46 22.17 100.26 22.17L100.26 22.17Q99.24 22.17 98.28 21.92Q97.31 21.67 96.72 21.24Z" fill="#FFFFFF" x="39"/></svg>